# xmcd
#
# Track frame offsets:
#	150
#	16982
#	40450
#	62419
#	76060
#	93519
#	109734
#	125184
#	147620
#	170237
#	189813
#
# Disc length: 2742 seconds
#
# Revision: 1
# Processed by: cddbd v1.5.2PL0 Copyright (c) Steve Scherf et al.
# Submitted via: audiograbber 1.83.01
#
DISCID=960ab40b
DTITLE=El Cruce - 770
DYEAR=2008
DGENRE=Blues
TTITLE0=A Encender El Blues
TTITLE1=Tengo Un Montón De Plata
TTITLE2=Mapuche
TTITLE3=Me Gustan Todas
TTITLE4=Todo Se Devuelve
TTITLE5=Me Tienes Loco
TTITLE6=La Vida Al Revés
TTITLE7=Hasta Siempre Pueblo Lindo
TTITLE8=Situación De Calle
TTITLE9=Billetera O Puñalada
TTITLE10=Sexoul
EXTD=http://www.sello-ovejanegra.cl/
EXTT0=
EXTT1=
EXTT2=
EXTT3=
EXTT4=
EXTT5=
EXTT6=
EXTT7=
EXTT8=
EXTT9=
EXTT10=
PLAYORDER=
